<?xml version="1.0" standalone="no"?>
<!DOCTYPE svg PUBLIC "-//W3C//DTD SVG 20010904//EN"
 "http://www.w3.org/TR/2001/REC-SVG-20010904/DTD/svg10.dtd">
<svg version="1.0" xmlns="http://www.w3.org/2000/svg"
 width="700.000000pt" height="700.000000pt" viewBox="0 0 700.000000 700.000000"
 preserveAspectRatio="xMidYMid meet">
<metadata>
Created by potrace 1.14, written by Peter Selinger 2001-2017
</metadata>
<g transform="translate(0.000000,700.000000) scale(0.100000,-0.100000)"
fill="#000000" stroke="none">
<path d="M324 6981 c-109 -31 -225 -125 -275 -223 -52 -102 -49 92 -49 -3258
0 -2072 4 -3120 11 -3150 26 -115 112 -230 219 -293 102 -60 -127 -56 3263
-56 2807 -1 3115 0 3170 15 117 30 218 106 277 210 63 109 59 -139 57 3289 -1
1722 -5 3140 -9 3153 -31 103 -138 236 -226 281 -103 53 93 50 -3262 50 -2942
0 -3118 -1 -3176 -18z"/>
</g>
</svg>
